<?xml version="1.0"?>
<svg xmlns="http://www.w3.org/2000/svg" height="512px" viewBox="0 0 496 496" width="512px"><path d="m456.472656 309.921875-64.472656-19.824219v-17.066406c14.792969-14.527344 24-34.710938 24-57.03125h8c22.054688 0 40-17.945312 40-40 0-13.015625-6.34375-24.488281-16-31.792969v-32.207031c0-61.761719-50.238281-112-112-112s-112 50.238281-112 112v32.207031c-9.65625 7.3125-16 18.785157-16 31.792969s6.34375 24.488281 16 31.792969v16.207031c0 13.230469 10.769531 24 24 24h14.726562c4.136719 9.433594 10.027344 17.910156 17.273438 25.03125v17.066406l-64.472656 19.832032c-23.648438 7.269531-39.527344 28.789062-39.527344 53.527343v15.542969c-6.34375-9.550781-14.414062-18.023438-24-24.910156v-212.179688c25.128906-18.054687 40-46.855468 40-77.910156 0-22.257812-7.832031-43.960938-22.054688-61.113281l-2.402343-2.886719h-47.542969v72h-48v-72h-47.542969l-2.402343 2.886719c-14.222657 17.152343-22.054688 38.855469-22.054688 61.113281 0 31.054688 14.871094 59.855469 40 77.910156v212.167969c-25.128906 18.066406-40 46.867187-40 77.921875 0 22.257812 7.832031 43.960938 22.054688 61.113281l2.402343 2.886719h47.542969v-72h48v72h47.542969l2.402343-2.886719c2.191407-2.640625 4.175782-5.417969 6.054688-8.265625v11.152344h320v-132.542969c0-24.738281-15.878906-46.257812-39.527344-53.535156zm-52.167968.695313-23.761719 53.460937-31.992188-21.316406 37.695313-37.699219zm-77.441407 81.382812h18.265625l13.542969 88h-45.351563zm20.855469-16h-23.429688l-6.730468-10.089844 18.441406-12.292968 18.441406 12.292968zm76.28125-176h-8v-48h8c13.230469 0 24 10.769531 24 24s-10.769531 24-24 24zm-184-88c0-52.9375 43.0625-96 96-96s96 43.0625 96 96v24.808594c-2.585938-.527344-5.265625-.808594-8-.808594h-16c-23.65625 0-45.894531-9.207031-62.625-25.9375l-9.375-9.375-9.375 9.375c-16.730469 16.730469-38.96875 25.9375-62.625 25.9375h-16c-2.734375 0-5.414062.28125-8 .808594zm8 40h8v48h-8c-13.230469 0-24-10.769531-24-24s10.769531-24 24-24zm0 80c-4.414062 0-8-3.585938-8-8v-8.808594c2.585938.527344 5.265625.808594 8 .808594h8c0 5.480469.558594 10.832031 1.617188 16zm49.472656 16c3.3125 9.289062 12.113282 16 22.527344 16h32c13.230469 0 24-10.769531 24-24s-10.769531-24-24-24h-32c-10.414062 0-19.214844 6.710938-22.527344 16h-23.367187c-1.328125-5.128906-2.105469-10.464844-2.105469-16v-64.296875c24.023438-1.808594 46.425781-11.726563 64-28.4375 17.574219 16.710937 39.976562 26.628906 64 28.4375v64.296875c0 35.289062-28.710938 64-64 64-23.625 0-44.257812-12.902344-55.34375-32zm14.527344-8c0-4.414062 3.585938-8 8-8h32c4.414062 0 8 3.585938 8 8s-3.585938 8-8 8h-32c-4.414062 0-8-3.585938-8-8zm24 56c14.574219 0 28.214844-3.984375 40-10.824219v7.511719l-40 40-40-40v-7.511719c11.785156 6.839844 25.425781 10.824219 40 10.824219zm-50.246094 9.0625 37.695313 37.699219-31.992188 21.316406-23.761719-53.460937zm-125.832031 174.9375h-23.921875v-56c0-8.824219-7.175781-16-16-16h-48c-8.824219 0-16 7.175781-16 16v56h-23.921875c-10.390625-13.792969-16.078125-30.695312-16.078125-48 0-27.097656 13.59375-52.144531 36.375-67l3.625-2.367188v-229.265624l-3.625-2.367188c-22.78125-14.855469-36.375-39.902344-36.375-67 0-17.304688 5.6875-34.207031 16.078125-48h23.921875v56c0 8.824219 7.175781 16 16 16h48c8.824219 0 16-7.175781 16-16v-56h23.921875c10.390625 13.792969 16.078125 30.695312 16.078125 48 0 27.097656-13.59375 52.144531-36.375 67l-3.625 2.367188v229.265624l3.625 2.367188c22.78125 14.855469 36.375 39.902344 36.375 67 0 17.304688-5.6875 34.207031-16.078125 48zm32.078125-116.542969c0-17.671875 11.351562-33.042969 28.230469-38.234375l32.058593-9.863281 32.253907 72.570313 19.695312-13.136719 7.378907 11.0625-14.480469 94.144531h-41.136719v-96h-16v96h-48zm288 116.542969h-48v-96h-16v96h-41.136719l-14.480469-94.152344 7.378907-11.0625 19.695312 13.136719 32.253907-72.570313 32.058593 9.863282c16.878907 5.191406 28.230469 20.5625 28.230469 38.234375zm0 0" fill="#ffaa2f"/><path d="m304 168c0 4.417969-3.582031 8-8 8s-8-3.582031-8-8 3.582031-8 8-8 8 3.582031 8 8zm0 0" fill="#ffaa2f"/><path d="m384 168c0 4.417969-3.582031 8-8 8s-8-3.582031-8-8 3.582031-8 8-8 8 3.582031 8 8zm0 0" fill="#ffaa2f"/><path d="m104 224h16v16h-16zm0 0" fill="#ffaa2f"/><path d="m96 136c-13.230469 0-24 10.769531-24 24v48h16v-48c0-4.414062 3.585938-8 8-8s8 3.585938 8 8v48h16v-48c0-13.230469-10.769531-24-24-24zm0 0" fill="#ffaa2f"/><path d="m72 224h16v16h-16zm0 0" fill="#ffaa2f"/><path d="m72 256h16v16h-16zm0 0" fill="#ffaa2f"/><path d="m104 336c0 4.414062-3.585938 8-8 8s-8-3.585938-8-8v-48h-16v48c0 13.230469 10.769531 24 24 24s24-10.769531 24-24v-48h-16zm0 0" fill="#ffaa2f"/><path d="m104 256h16v16h-16zm0 0" fill="#ffaa2f"/></svg>
